<svg xmlns="http://www.w3.org/2000/svg" viewBox="0 0 1024 1024">
  <path fill="#ffffff" d="M512 0C229.2 0 0 229.2 0 512c0 226.1 146.8 417.4 350.7 484.9 25.7 4.8 35.1-11.1 35.1-24.7 0-12.2-.5-52.8-.8-95.8-143.2 31.2-173.6-69.2-173.6-69.2-23.5-60.3-57.2-76.2-57.2-76.2-46.6-32.5 3.5-31.8 3.5-31.8 51.5 3.6 78.5 52.9 78.5 52.9 45.7 78.4 120 55.7 149.2 42.5 4.6-33 17.8-55.7 32.3-68.4-113.3-12.9-232.3-56.6-232.3-252.2 0-55.8 19.9-101.5 52.9-137.2-5.3-12.9-22.9-64.8 5-135.1 0 0 42.8-13.7 140.2 52.3 40.6-11.3 84.2-16.9 127.5-17.1 43.3.2 86.8 5.8 127.5 17.1 97.5-66 140.2-52.3 140.2-52.3 28 70.3 10.3 122.2 5 135.1 33 35.7 52.8 81.4 52.8 137.2 0 195.9-119.2 239.1-232.8 252.1 18.3 15.8 34.6 47 34.6 94.7 0 68.4-.6 123.4-.6 140.2 0 13.7 9.2 29.7 35.4 24.7C877.4 929.4 1024 738.1 1024 512 1024 229.2 794.8 0 512 0z"/>
</svg>